<svg height="1982" width="720" xmlns="http://www.w3.org/2000/svg">
<rect height="1982" fill="#555" width="720"></rect>
<text fill="#7f7" font-family="Courier New" font-size="12" xml:space="preserve">
<tspan x="10" y="26"></tspan>
<tspan x="10" y="42">&gt; npmdoc-jest-cli@0.0.1 test /home/travis/build/npmdoc/node-npmdoc-jest-cli</tspan>
<tspan x="10" y="58">&gt; (set -e; export PORT=$(utility2 shServerPortRandom); utility2 test test.js)</tspan>
<tspan x="10" y="74"></tspan>
<tspan x="10" y="90"></tspan>
<tspan x="10" y="106">[MODE_BUILD=npmTest] - 2017-04-03T17:54:28Z - npm-testing /home/travis/build/npmdoc/node-npmdoc-\</tspan>
<tspan x="10" y="122">jest-cli</tspan>
<tspan x="10" y="138"></tspan>
<tspan x="10" y="154"></tspan>
<tspan x="10" y="170">covering $ /home/travis/.nvm/versions/node/v6.10.1/bin/node /home/travis/build/npmdoc/node-npmdo\</tspan>
<tspan x="10" y="186">c-jest-cli/test.js</tspan>
<tspan x="10" y="202">merging file:///home/travis/build/npmdoc/node-npmdoc-jest-cli/tmp/build/test-report.json to test\</tspan>
<tspan x="10" y="218">-report</tspan>
<tspan x="10" y="234">&gt; server listening on http-port 58004</tspan>
<tspan x="10" y="250">created apidoc file:///home/travis/build/npmdoc/node-npmdoc-jest-cli/tmp/build/apidoc.html</tspan>
<tspan x="10" y="266"></tspan>
<tspan x="10" y="282"></tspan>
<tspan x="10" y="298">browserTest - created electron entry-page /home/travis/build/npmdoc/node-npmdoc-jest-cli/tmp/ele\</tspan>
<tspan x="10" y="314">ctron.15b34f42bed0.6abc45251be57.html</tspan>
<tspan x="10" y="330"></tspan>
<tspan x="10" y="346">[node test-case 1 of 6 passed] - testCase_buildLib_default</tspan>
<tspan x="10" y="362">[node test-case 2 of 6 passed] - testCase_buildReadme_default</tspan>
<tspan x="10" y="378">[node test-case 3 of 6 passed] - testCase_buildTest_default</tspan>
<tspan x="10" y="394"></tspan>
<tspan x="10" y="410">browserTest - created electron entry-page /home/travis/build/npmdoc/node-npmdoc-jest-cli/tmp/ele\</tspan>
<tspan x="10" y="426">ctron.15b34f42c120.03efaf1e099c8.html</tspan>
<tspan x="10" y="442"></tspan>
<tspan x="10" y="458">Xlib:  extension "RANDR" missing on display ":99.0".</tspan>
<tspan x="10" y="474">Xlib:  extension "RANDR" missing on display ":99.0".</tspan>
<tspan x="10" y="490">&gt; server listening on http-port 48769</tspan>
<tspan x="10" y="506">merging file:///home/travis/build/npmdoc/node-npmdoc-jest-cli/tmp/build/test-report.json to test\</tspan>
<tspan x="10" y="522">-report</tspan>
<tspan x="10" y="538">merging file:///home/travis/build/npmdoc/node-npmdoc-jest-cli/tmp/build/test-report.json to test\</tspan>
<tspan x="10" y="554">-report</tspan>
<tspan x="10" y="570">Xlib:  extension "RANDR" missing on display ":99.0".</tspan>
<tspan x="10" y="586">Xlib:  extension "RANDR" missing on display ":99.0".</tspan>
<tspan x="10" y="602">[6211:0403/175429:WARNING:audio_manager.cc(314)] Multiple instances of AudioManager detected</tspan>
<tspan x="10" y="618">[6211:0403/175429:WARNING:audio_manager.cc(275)] Multiple instances of AudioManager detected</tspan>
<tspan x="10" y="634">[6262:0403/175429:ERROR:sandbox_linux.cc(343)] InitializeSandbox() called with multiple threads \</tspan>
<tspan x="10" y="650">in process gpu-process. </tspan>
<tspan x="10" y="666">[6210:0403/175429:WARNING:audio_manager.cc(314)] Multiple instances of AudioManager detected</tspan>
<tspan x="10" y="682">[6210:0403/175429:WARNING:audio_manager.cc(275)] Multiple instances of AudioManager detected</tspan>
<tspan x="10" y="698">[6285:0403/175429:ERROR:sandbox_linux.cc(343)] InitializeSandbox() called with multiple threads \</tspan>
<tspan x="10" y="714">in process gpu-process. </tspan>
<tspan x="10" y="730"></tspan>
<tspan x="10" y="746">browserTest - opened url http://127.0.0.1:58004?modeTest=1</tspan>
<tspan x="10" y="762"></tspan>
<tspan x="10" y="778"></tspan>
<tspan x="10" y="794">browserTest - opened url /home/travis/build/npmdoc/node-npmdoc-jest-cli/tmp/build/apidoc.html</tspan>
<tspan x="10" y="810"></tspan>
<tspan x="10" y="826">[6211:0403/175431:INFO:CONSOLE(245)] "----------|-----------|-----------|-----------|-----------\</tspan>
<tspan x="10" y="842">|</tspan>
<tspan x="10" y="858">File      |   % Stmts |% Branches |   % Funcs |   % Lines |</tspan>
<tspan x="10" y="874">----------|-----------|-----------|-----------|-----------|</tspan>
<tspan x="10" y="890">----------|-----------|-----------|-----------|-----------|</tspan>
<tspan x="10" y="906">All files |       100 |       100 |       100 |       100 |</tspan>
<tspan x="10" y="922">----------|-----------|-----------|-----------|-----------|</tspan>
<tspan x="10" y="938">", source: file:///home/travis/build/npmdoc/node-npmdoc-jest-cli/tmp/electron.15b34f42c120.03efa\</tspan>
<tspan x="10" y="954">f1e099c8.html (245)</tspan>
<tspan x="10" y="970">[6211:0403/175431:INFO:CONSOLE(245)] "created coverage file:///tmp/build/coverage.html/index.htm\</tspan>
<tspan x="10" y="986">l", source: file:///home/travis/build/npmdoc/node-npmdoc-jest-cli/tmp/electron.15b34f42c120.03ef\</tspan>
<tspan x="10" y="1002">af1e099c8.html (245)</tspan>
<tspan x="10" y="1018">[node test-case 4 of 6 passed] - testCase_buildApp_default</tspan>
<tspan x="10" y="1034"></tspan>
<tspan x="10" y="1050">browserTest - created screenCapture file:///home/travis/build/npmdoc/node-npmdoc-jest-cli/tmp/bu\</tspan>
<tspan x="10" y="1066">ild/screenCapture.npmTest.browser..png</tspan>
<tspan x="10" y="1082"></tspan>
<tspan x="10" y="1098">browserTest - created screenCapture file:///home/travis/build/npmdoc/node-npmdoc-jest-cli/tmp/bu\</tspan>
<tspan x="10" y="1114">ild/screenCapture.npmTest.browser..html</tspan>
<tspan x="10" y="1130"></tspan>
<tspan x="10" y="1146">browserTest - exit-code 0 - http://127.0.0.1:58004?modeTest=1</tspan>
<tspan x="10" y="1162"></tspan>
<tspan x="10" y="1178"></tspan>
<tspan x="10" y="1194">browserTest - merged coverage from /home/travis/build/npmdoc/node-npmdoc-jest-cli/tmp/coverage.n\</tspan>
<tspan x="10" y="1210">pmTest.browser.%2F.json</tspan>
<tspan x="10" y="1226"></tspan>
<tspan x="10" y="1242"></tspan>
<tspan x="10" y="1258">browserTest - merging test-report from /home/travis/build/npmdoc/node-npmdoc-jest-cli/tmp/test-r\</tspan>
<tspan x="10" y="1274">eport.npmTest.browser.%2F.json</tspan>
<tspan x="10" y="1290"></tspan>
<tspan x="10" y="1306">[node test-case 5 of 6 passed] - testCase_webpage_default</tspan>
<tspan x="10" y="1322"></tspan>
<tspan x="10" y="1338">browserTest - created screenCapture file:///home/travis/build/npmdoc/node-npmdoc-jest-cli/tmp/bu\</tspan>
<tspan x="10" y="1354">ild/screenCapture.npmTest.browser._2Fhome_2Ftravis_2Fbuild_2Fnpmdoc_2Fnode-npmdoc-jest-cli_2Ftmp\</tspan>
<tspan x="10" y="1370">_2Fbuild_2Fapidoc.html.png</tspan>
<tspan x="10" y="1386"></tspan>
<tspan x="10" y="1402">browserTest - created screenCapture file:///home/travis/build/npmdoc/node-npmdoc-jest-cli/tmp/bu\</tspan>
<tspan x="10" y="1418">ild/screenCapture.npmTest.browser._2Fhome_2Ftravis_2Fbuild_2Fnpmdoc_2Fnode-npmdoc-jest-cli_2Ftmp\</tspan>
<tspan x="10" y="1434">_2Fbuild_2Fapidoc.html.html</tspan>
<tspan x="10" y="1450"></tspan>
<tspan x="10" y="1466">browserTest - exit-code 0 - /home/travis/build/npmdoc/node-npmdoc-jest-cli/tmp/build/apidoc.html</tspan>
<tspan x="10" y="1482"></tspan>
<tspan x="10" y="1498">[node test-case 6 of 6 passed] - testCase_buildApidoc_default</tspan>
<tspan x="10" y="1514">-----------------------------|-----------|-----------|-----------|-----------|</tspan>
<tspan x="10" y="1530">File                         |   % Stmts |% Branches |   % Funcs |   % Lines |</tspan>
<tspan x="10" y="1546">-----------------------------|-----------|-----------|-----------|-----------|</tspan>
<tspan x="10" y="1562">   node-npmdoc-jest-cli/     |       100 |       100 |       100 |       100 |</tspan>
<tspan x="10" y="1578">      example.js             |       100 |       100 |       100 |       100 |</tspan>
<tspan x="10" y="1594">      lib.npmdoc_jest_cli.js |       100 |       100 |       100 |       100 |</tspan>
<tspan x="10" y="1610">      test.js                |       100 |       100 |       100 |       100 |</tspan>
<tspan x="10" y="1626">-----------------------------|-----------|-----------|-----------|-----------|</tspan>
<tspan x="10" y="1642">All files                    |       100 |       100 |       100 |       100 |</tspan>
<tspan x="10" y="1658">-----------------------------|-----------|-----------|-----------|-----------|</tspan>
<tspan x="10" y="1674"></tspan>
<tspan x="10" y="1690">created coverage file:///home/travis/build/npmdoc/node-npmdoc-jest-cli/tmp/build/coverage.html/i\</tspan>
<tspan x="10" y="1706">ndex.html</tspan>
<tspan x="10" y="1722">merging file:///home/travis/build/npmdoc/node-npmdoc-jest-cli/tmp/build/test-report.json to test\</tspan>
<tspan x="10" y="1738">-report</tspan>
<tspan x="10" y="1754"></tspan>
<tspan x="10" y="1770">-------------------------------------------------------</tspan>
<tspan x="10" y="1786">| test-report - buildNpmdoc - node - linux v6.10.1 - 2017-04-03T17:53:53.343Z</tspan>
<tspan x="10" y="1802">|   45557 ms            0 failed        6 passed      |</tspan>
<tspan x="10" y="1818">-------------------------------------------------------</tspan>
<tspan x="10" y="1834"></tspan>
<tspan x="10" y="1850">created test-report file:///home/travis/build/npmdoc/node-npmdoc-jest-cli/tmp/build/test-report.\</tspan>
<tspan x="10" y="1866">html</tspan>
<tspan x="10" y="1882"></tspan>
<tspan x="10" y="1898"></tspan>
<tspan x="10" y="1914">npmTest - 0 failed tests</tspan>
<tspan x="10" y="1930"></tspan>
<tspan x="10" y="1946"></tspan>
<tspan x="10" y="1962">[MODE_BUILD=npmTest] - 2017-04-03T17:54:41Z - EXIT_CODE - 0</tspan>
</text>
</svg>
