<svg height="5294" width="720" xmlns="http://www.w3.org/2000/svg">
<rect height="5294" fill="#555" width="720"></rect>
<text fill="#7f7" font-family="Courier New" font-size="12" xml:space="preserve">
<tspan x="10" y="26">└─┬ jest-cli@19.0.2 </tspan>
<tspan x="10" y="42">  ├── ansi-escapes@1.4.0 </tspan>
<tspan x="10" y="58">  ├── callsites@2.0.0 </tspan>
<tspan x="10" y="74">  ├─┬ chalk@1.1.3 </tspan>
<tspan x="10" y="90">  │ ├── ansi-styles@2.2.1 </tspan>
<tspan x="10" y="106">  │ ├── escape-string-regexp@1.0.5 </tspan>
<tspan x="10" y="122">  │ ├─┬ has-ansi@2.0.0 </tspan>
<tspan x="10" y="138">  │ │ └── ansi-regex@2.1.1 </tspan>
<tspan x="10" y="154">  │ ├── strip-ansi@3.0.1 </tspan>
<tspan x="10" y="170">  │ └── supports-color@2.0.0 </tspan>
<tspan x="10" y="186">  ├── graceful-fs@4.1.11 </tspan>
<tspan x="10" y="202">  ├─┬ is-ci@1.0.10 </tspan>
<tspan x="10" y="218">  │ └── ci-info@1.0.0 </tspan>
<tspan x="10" y="234">  ├─┬ istanbul-api@1.1.7 </tspan>
<tspan x="10" y="250">  │ ├─┬ async@2.3.0 </tspan>
<tspan x="10" y="266">  │ │ └── lodash@4.17.4 </tspan>
<tspan x="10" y="282">  │ ├─┬ fileset@2.0.3 </tspan>
<tspan x="10" y="298">  │ │ ├─┬ glob@7.1.1 </tspan>
<tspan x="10" y="314">  │ │ │ ├── fs.realpath@1.0.0 </tspan>
<tspan x="10" y="330">  │ │ │ ├── inflight@1.0.6 </tspan>
<tspan x="10" y="346">  │ │ │ └── inherits@2.0.3 </tspan>
<tspan x="10" y="362">  │ │ └─┬ minimatch@3.0.3 </tspan>
<tspan x="10" y="378">  │ │   └─┬ brace-expansion@1.1.6 </tspan>
<tspan x="10" y="394">  │ │     ├── balanced-match@0.4.2 </tspan>
<tspan x="10" y="410">  │ │     └── concat-map@0.0.1 </tspan>
<tspan x="10" y="426">  │ ├─┬ istanbul-lib-hook@1.0.5 </tspan>
<tspan x="10" y="442">  │ │ └─┬ append-transform@0.4.0 </tspan>
<tspan x="10" y="458">  │ │   └─┬ default-require-extensions@1.0.0 </tspan>
<tspan x="10" y="474">  │ │     └─┬ strip-bom@2.0.0 </tspan>
<tspan x="10" y="490">  │ │       └── is-utf8@0.2.1 </tspan>
<tspan x="10" y="506">  │ ├─┬ istanbul-lib-report@1.0.0 </tspan>
<tspan x="10" y="522">  │ │ ├── path-parse@1.0.5 </tspan>
<tspan x="10" y="538">  │ │ └─┬ supports-color@3.2.3 </tspan>
<tspan x="10" y="554">  │ │   └── has-flag@1.0.0 </tspan>
<tspan x="10" y="570">  │ ├─┬ istanbul-lib-source-maps@1.1.1 </tspan>
<tspan x="10" y="586">  │ │ ├── rimraf@2.6.1 </tspan>
<tspan x="10" y="602">  │ │ └── source-map@0.5.6 </tspan>
<tspan x="10" y="618">  │ ├─┬ istanbul-reports@1.0.2 </tspan>
<tspan x="10" y="634">  │ │ └─┬ handlebars@4.0.6 </tspan>
<tspan x="10" y="650">  │ │   ├── async@1.5.2 </tspan>
<tspan x="10" y="666">  │ │   ├─┬ optimist@0.6.1 </tspan>
<tspan x="10" y="682">  │ │   │ └── wordwrap@0.0.3 </tspan>
<tspan x="10" y="698">  │ │   ├─┬ source-map@0.4.4 </tspan>
<tspan x="10" y="714">  │ │   │ └── amdefine@1.0.1 </tspan>
<tspan x="10" y="730">  │ │   └─┬ uglify-js@2.8.21 </tspan>
<tspan x="10" y="746">  │ │     ├── uglify-to-browserify@1.0.2 </tspan>
<tspan x="10" y="762">  │ │     └─┬ yargs@3.10.0 </tspan>
<tspan x="10" y="778">  │ │       ├── camelcase@1.2.1 </tspan>
<tspan x="10" y="794">  │ │       ├─┬ cliui@2.1.0 </tspan>
<tspan x="10" y="810">  │ │       │ ├─┬ center-align@0.1.3 </tspan>
<tspan x="10" y="826">  │ │       │ │ ├─┬ align-text@0.1.4 </tspan>
<tspan x="10" y="842">  │ │       │ │ │ └── longest@1.0.1 </tspan>
<tspan x="10" y="858">  │ │       │ │ └── lazy-cache@1.0.4 </tspan>
<tspan x="10" y="874">  │ │       │ ├── right-align@0.1.3 </tspan>
<tspan x="10" y="890">  │ │       │ └── wordwrap@0.0.2 </tspan>
<tspan x="10" y="906">  │ │       └── window-size@0.1.0 </tspan>
<tspan x="10" y="922">  │ ├─┬ js-yaml@3.8.2 </tspan>
<tspan x="10" y="938">  │ │ ├─┬ argparse@1.0.9 </tspan>
<tspan x="10" y="954">  │ │ │ └── sprintf-js@1.0.3 </tspan>
<tspan x="10" y="970">  │ │ └── esprima@3.1.3 </tspan>
<tspan x="10" y="986">  │ ├─┬ mkdirp@0.5.1 </tspan>
<tspan x="10" y="1002">  │ │ └── minimist@0.0.8 </tspan>
<tspan x="10" y="1018">  │ └─┬ once@1.4.0 </tspan>
<tspan x="10" y="1034">  │   └── wrappy@1.0.2 </tspan>
<tspan x="10" y="1050">  ├── istanbul-lib-coverage@1.0.2 </tspan>
<tspan x="10" y="1066">  ├─┬ istanbul-lib-instrument@1.7.0 </tspan>
<tspan x="10" y="1082">  │ ├─┬ babel-generator@6.24.0 </tspan>
<tspan x="10" y="1098">  │ │ ├── babel-messages@6.23.0 </tspan>
<tspan x="10" y="1114">  │ │ ├─┬ babel-runtime@6.23.0 </tspan>
<tspan x="10" y="1130">  │ │ │ ├── core-js@2.4.1 </tspan>
<tspan x="10" y="1146">  │ │ │ └── regenerator-runtime@0.10.3 </tspan>
<tspan x="10" y="1162">  │ │ ├─┬ detect-indent@4.0.0 </tspan>
<tspan x="10" y="1178">  │ │ │ └─┬ repeating@2.0.1 </tspan>
<tspan x="10" y="1194">  │ │ │   └── is-finite@1.0.2 </tspan>
<tspan x="10" y="1210">  │ │ ├── jsesc@1.3.0 </tspan>
<tspan x="10" y="1226">  │ │ └── trim-right@1.0.1 </tspan>
<tspan x="10" y="1242">  │ ├── babel-template@6.23.0 </tspan>
<tspan x="10" y="1258">  │ ├─┬ babel-traverse@6.23.1 </tspan>
<tspan x="10" y="1274">  │ │ ├─┬ babel-code-frame@6.22.0 </tspan>
<tspan x="10" y="1290">  │ │ │ └── js-tokens@3.0.1 </tspan>
<tspan x="10" y="1306">  │ │ ├─┬ debug@2.6.3 </tspan>
<tspan x="10" y="1322">  │ │ │ └── ms@0.7.2 </tspan>
<tspan x="10" y="1338">  │ │ ├── globals@9.17.0 </tspan>
<tspan x="10" y="1354">  │ │ └─┬ invariant@2.2.2 </tspan>
<tspan x="10" y="1370">  │ │   └── loose-envify@1.3.1 </tspan>
<tspan x="10" y="1386">  │ ├─┬ babel-types@6.23.0 </tspan>
<tspan x="10" y="1402">  │ │ ├── esutils@2.0.2 </tspan>
<tspan x="10" y="1418">  │ │ └── to-fast-properties@1.0.2 </tspan>
<tspan x="10" y="1434">  │ ├── babylon@6.16.1 </tspan>
<tspan x="10" y="1450">  │ └── semver@5.3.0 </tspan>
<tspan x="10" y="1466">  ├── jest-changed-files@19.0.2 </tspan>
<tspan x="10" y="1482">  ├─┬ jest-config@19.0.2 </tspan>
<tspan x="10" y="1498">  │ ├── jest-environment-node@19.0.2 </tspan>
<tspan x="10" y="1514">  │ ├─┬ jest-resolve@19.0.2 </tspan>
<tspan x="10" y="1530">  │ │ ├─┬ browser-resolve@1.11.2 </tspan>
<tspan x="10" y="1546">  │ │ │ └── resolve@1.1.7 </tspan>
<tspan x="10" y="1562">  │ │ └── resolve@1.3.2 </tspan>
<tspan x="10" y="1578">  │ ├── jest-validate@19.0.2 </tspan>
<tspan x="10" y="1594">  │ └─┬ pretty-format@19.0.0 </tspan>
<tspan x="10" y="1610">  │   └─┬ ansi-styles@3.0.0 </tspan>
<tspan x="10" y="1626">  │     └─┬ color-convert@1.9.0 </tspan>
<tspan x="10" y="1642">  │       └── color-name@1.1.2 </tspan>
<tspan x="10" y="1658">  ├─┬ jest-environment-jsdom@19.0.2 </tspan>
<tspan x="10" y="1674">  │ ├── jest-mock@19.0.0 </tspan>
<tspan x="10" y="1690">  │ └─┬ jsdom@9.12.0 </tspan>
<tspan x="10" y="1706">  │   ├── abab@1.0.3 </tspan>
<tspan x="10" y="1722">  │   ├── acorn@4.0.11 </tspan>
<tspan x="10" y="1738">  │   ├── acorn-globals@3.1.0 </tspan>
<tspan x="10" y="1754">  │   ├── array-equal@1.0.0 </tspan>
<tspan x="10" y="1770">  │   ├── content-type-parser@1.0.1 </tspan>
<tspan x="10" y="1786">  │   ├── cssom@0.3.2 </tspan>
<tspan x="10" y="1802">  │   ├── cssstyle@0.2.37 </tspan>
<tspan x="10" y="1818">  │   ├─┬ escodegen@1.8.1 </tspan>
<tspan x="10" y="1834">  │   │ ├── esprima@2.7.3 </tspan>
<tspan x="10" y="1850">  │   │ ├── estraverse@1.9.3 </tspan>
<tspan x="10" y="1866">  │   │ ├─┬ optionator@0.8.2 </tspan>
<tspan x="10" y="1882">  │   │ │ ├── deep-is@0.1.3 </tspan>
<tspan x="10" y="1898">  │   │ │ ├── fast-levenshtein@2.0.6 </tspan>
<tspan x="10" y="1914">  │   │ │ ├── levn@0.3.0 </tspan>
<tspan x="10" y="1930">  │   │ │ ├── prelude-ls@1.1.2 </tspan>
<tspan x="10" y="1946">  │   │ │ ├── type-check@0.3.2 </tspan>
<tspan x="10" y="1962">  │   │ │ └── wordwrap@1.0.0 </tspan>
<tspan x="10" y="1978">  │   │ └── source-map@0.2.0 </tspan>
<tspan x="10" y="1994">  │   ├── html-encoding-sniffer@1.0.1 </tspan>
<tspan x="10" y="2010">  │   ├── nwmatcher@1.3.9 </tspan>
<tspan x="10" y="2026">  │   ├── parse5@1.5.1 </tspan>
<tspan x="10" y="2042">  │   ├─┬ request@2.81.0 </tspan>
<tspan x="10" y="2058">  │   │ ├── aws-sign2@0.6.0 </tspan>
<tspan x="10" y="2074">  │   │ ├── aws4@1.6.0 </tspan>
<tspan x="10" y="2090">  │   │ ├── caseless@0.12.0 </tspan>
<tspan x="10" y="2106">  │   │ ├─┬ combined-stream@1.0.5 </tspan>
<tspan x="10" y="2122">  │   │ │ └── delayed-stream@1.0.0 </tspan>
<tspan x="10" y="2138">  │   │ ├── extend@3.0.0 </tspan>
<tspan x="10" y="2154">  │   │ ├── forever-agent@0.6.1 </tspan>
<tspan x="10" y="2170">  │   │ ├─┬ form-data@2.1.2 </tspan>
<tspan x="10" y="2186">  │   │ │ └── asynckit@0.4.0 </tspan>
<tspan x="10" y="2202">  │   │ ├─┬ har-validator@4.2.1 </tspan>
<tspan x="10" y="2218">  │   │ │ ├─┬ ajv@4.11.5 </tspan>
<tspan x="10" y="2234">  │   │ │ │ └── co@4.6.0 </tspan>
<tspan x="10" y="2250">  │   │ │ └── har-schema@1.0.5 </tspan>
<tspan x="10" y="2266">  │   │ ├─┬ hawk@3.1.3 </tspan>
<tspan x="10" y="2282">  │   │ │ ├── boom@2.10.1 </tspan>
<tspan x="10" y="2298">  │   │ │ ├── cryptiles@2.0.5 </tspan>
<tspan x="10" y="2314">  │   │ │ ├── hoek@2.16.3 </tspan>
<tspan x="10" y="2330">  │   │ │ └── sntp@1.0.9 </tspan>
<tspan x="10" y="2346">  │   │ ├─┬ http-signature@1.1.1 </tspan>
<tspan x="10" y="2362">  │   │ │ ├── assert-plus@0.2.0 </tspan>
<tspan x="10" y="2378">  │   │ │ ├─┬ jsprim@1.4.0 </tspan>
<tspan x="10" y="2394">  │   │ │ │ ├── assert-plus@1.0.0 </tspan>
<tspan x="10" y="2410">  │   │ │ │ ├── extsprintf@1.0.2 </tspan>
<tspan x="10" y="2426">  │   │ │ │ ├── json-schema@0.2.3 </tspan>
<tspan x="10" y="2442">  │   │ │ │ └── verror@1.3.6 </tspan>
<tspan x="10" y="2458">  │   │ │ └─┬ sshpk@1.11.0 </tspan>
<tspan x="10" y="2474">  │   │ │   ├── asn1@0.2.3 </tspan>
<tspan x="10" y="2490">  │   │ │   ├── assert-plus@1.0.0 </tspan>
<tspan x="10" y="2506">  │   │ │   ├── bcrypt-pbkdf@1.0.1 </tspan>
<tspan x="10" y="2522">  │   │ │   ├─┬ dashdash@1.14.1 </tspan>
<tspan x="10" y="2538">  │   │ │   │ └── assert-plus@1.0.0 </tspan>
<tspan x="10" y="2554">  │   │ │   ├── ecc-jsbn@0.1.1 </tspan>
<tspan x="10" y="2570">  │   │ │   ├─┬ getpass@0.1.6 </tspan>
<tspan x="10" y="2586">  │   │ │   │ └── assert-plus@1.0.0 </tspan>
<tspan x="10" y="2602">  │   │ │   ├── jodid25519@1.0.2 </tspan>
<tspan x="10" y="2618">  │   │ │   ├── jsbn@0.1.1 </tspan>
<tspan x="10" y="2634">  │   │ │   └── tweetnacl@0.14.5 </tspan>
<tspan x="10" y="2650">  │   │ ├── is-typedarray@1.0.0 </tspan>
<tspan x="10" y="2666">  │   │ ├── isstream@0.1.2 </tspan>
<tspan x="10" y="2682">  │   │ ├── json-stringify-safe@5.0.1 </tspan>
<tspan x="10" y="2698">  │   │ ├─┬ mime-types@2.1.15 </tspan>
<tspan x="10" y="2714">  │   │ │ └── mime-db@1.27.0 </tspan>
<tspan x="10" y="2730">  │   │ ├── oauth-sign@0.8.2 </tspan>
<tspan x="10" y="2746">  │   │ ├── performance-now@0.2.0 </tspan>
<tspan x="10" y="2762">  │   │ ├── qs@6.4.0 </tspan>
<tspan x="10" y="2778">  │   │ ├── safe-buffer@5.0.1 </tspan>
<tspan x="10" y="2794">  │   │ ├── stringstream@0.0.5 </tspan>
<tspan x="10" y="2810">  │   │ ├── tunnel-agent@0.6.0 </tspan>
<tspan x="10" y="2826">  │   │ └── uuid@3.0.1 </tspan>
<tspan x="10" y="2842">  │   ├── sax@1.2.2 </tspan>
<tspan x="10" y="2858">  │   ├── symbol-tree@3.2.2 </tspan>
<tspan x="10" y="2874">  │   ├─┬ tough-cookie@2.3.2 </tspan>
<tspan x="10" y="2890">  │   │ └── punycode@1.4.1 </tspan>
<tspan x="10" y="2906">  │   ├── webidl-conversions@4.0.1 </tspan>
<tspan x="10" y="2922">  │   ├─┬ whatwg-encoding@1.0.1 </tspan>
<tspan x="10" y="2938">  │   │ └── iconv-lite@0.4.13 </tspan>
<tspan x="10" y="2954">  │   ├─┬ whatwg-url@4.7.0 </tspan>
<tspan x="10" y="2970">  │   │ ├── tr46@0.0.3 </tspan>
<tspan x="10" y="2986">  │   │ └── webidl-conversions@3.0.1 </tspan>
<tspan x="10" y="3002">  │   └── xml-name-validator@2.0.1 </tspan>
<tspan x="10" y="3018">  ├─┬ jest-haste-map@19.0.0 </tspan>
<tspan x="10" y="3034">  │ ├─┬ fb-watchman@2.0.0 </tspan>
<tspan x="10" y="3050">  │ │ └─┬ bser@2.0.0 </tspan>
<tspan x="10" y="3066">  │ │   └── node-int64@0.4.0 </tspan>
<tspan x="10" y="3082">  │ └─┬ sane@1.5.0 </tspan>
<tspan x="10" y="3098">  │   ├─┬ anymatch@1.3.0 </tspan>
<tspan x="10" y="3114">  │   │ └── arrify@1.0.1 </tspan>
<tspan x="10" y="3130">  │   ├─┬ exec-sh@0.2.0 </tspan>
<tspan x="10" y="3146">  │   │ └── merge@1.2.0 </tspan>
<tspan x="10" y="3162">  │   ├─┬ fb-watchman@1.9.2 </tspan>
<tspan x="10" y="3178">  │   │ └── bser@1.0.2 </tspan>
<tspan x="10" y="3194">  │   ├── minimist@1.2.0 </tspan>
<tspan x="10" y="3210">  │   ├─┬ walker@1.0.7 </tspan>
<tspan x="10" y="3226">  │   │ └─┬ makeerror@1.0.11 </tspan>
<tspan x="10" y="3242">  │   │   └── tmpl@1.0.4 </tspan>
<tspan x="10" y="3258">  │   └── watch@0.10.0 </tspan>
<tspan x="10" y="3274">  ├─┬ jest-jasmine2@19.0.2 </tspan>
<tspan x="10" y="3290">  │ ├── jest-matcher-utils@19.0.0 </tspan>
<tspan x="10" y="3306">  │ └── jest-matchers@19.0.0 </tspan>
<tspan x="10" y="3322">  ├── jest-message-util@19.0.0 </tspan>
<tspan x="10" y="3338">  ├── jest-regex-util@19.0.0 </tspan>
<tspan x="10" y="3354">  ├─┬ jest-resolve-dependencies@19.0.0 </tspan>
<tspan x="10" y="3370">  │ └── jest-file-exists@19.0.0 </tspan>
<tspan x="10" y="3386">  ├─┬ jest-runtime@19.0.2 </tspan>
<tspan x="10" y="3402">  │ ├─┬ babel-core@6.24.0 </tspan>
<tspan x="10" y="3418">  │ │ ├── babel-helpers@6.23.0 </tspan>
<tspan x="10" y="3434">  │ │ ├─┬ babel-register@6.24.0 </tspan>
<tspan x="10" y="3450">  │ │ │ ├─┬ home-or-tmp@2.0.0 </tspan>
<tspan x="10" y="3466">  │ │ │ │ ├── os-homedir@1.0.2 </tspan>
<tspan x="10" y="3482">  │ │ │ │ └── os-tmpdir@1.0.2 </tspan>
<tspan x="10" y="3498">  │ │ │ └── source-map-support@0.4.14 </tspan>
<tspan x="10" y="3514">  │ │ ├── convert-source-map@1.5.0 </tspan>
<tspan x="10" y="3530">  │ │ ├── json5@0.5.1 </tspan>
<tspan x="10" y="3546">  │ │ ├── path-is-absolute@1.0.1 </tspan>
<tspan x="10" y="3562">  │ │ └── private@0.1.7 </tspan>
<tspan x="10" y="3578">  │ ├─┬ babel-jest@19.0.0 </tspan>
<tspan x="10" y="3594">  │ │ └─┬ babel-preset-jest@19.0.0 </tspan>
<tspan x="10" y="3610">  │ │   └── babel-plugin-jest-hoist@19.0.0 </tspan>
<tspan x="10" y="3626">  │ ├─┬ babel-plugin-istanbul@4.1.1 </tspan>
<tspan x="10" y="3642">  │ │ ├─┬ find-up@2.1.0 </tspan>
<tspan x="10" y="3658">  │ │ │ └─┬ locate-path@2.0.0 </tspan>
<tspan x="10" y="3674">  │ │ │   ├─┬ p-locate@2.0.0 </tspan>
<tspan x="10" y="3690">  │ │ │   │ └── p-limit@1.1.0 </tspan>
<tspan x="10" y="3706">  │ │ │   └── path-exists@3.0.0 </tspan>
<tspan x="10" y="3722">  │ │ └─┬ test-exclude@4.0.3 </tspan>
<tspan x="10" y="3738">  │ │   └── object-assign@4.1.1 </tspan>
<tspan x="10" y="3754">  │ ├─┬ json-stable-stringify@1.0.1 </tspan>
<tspan x="10" y="3770">  │ │ └── jsonify@0.0.0 </tspan>
<tspan x="10" y="3786">  │ └── strip-bom@3.0.0 </tspan>
<tspan x="10" y="3802">  ├─┬ jest-snapshot@19.0.2 </tspan>
<tspan x="10" y="3818">  │ ├─┬ jest-diff@19.0.0 </tspan>
<tspan x="10" y="3834">  │ │ └── diff@3.2.0 </tspan>
<tspan x="10" y="3850">  │ └── natural-compare@1.4.0 </tspan>
<tspan x="10" y="3866">  ├─┬ jest-util@19.0.2 </tspan>
<tspan x="10" y="3882">  │ └── leven@2.1.0 </tspan>
<tspan x="10" y="3898">  ├─┬ micromatch@2.3.11 </tspan>
<tspan x="10" y="3914">  │ ├─┬ arr-diff@2.0.0 </tspan>
<tspan x="10" y="3930">  │ │ └── arr-flatten@1.0.1 </tspan>
<tspan x="10" y="3946">  │ ├── array-unique@0.2.1 </tspan>
<tspan x="10" y="3962">  │ ├─┬ braces@1.8.5 </tspan>
<tspan x="10" y="3978">  │ │ ├─┬ expand-range@1.8.2 </tspan>
<tspan x="10" y="3994">  │ │ │ └─┬ fill-range@2.2.3 </tspan>
<tspan x="10" y="4010">  │ │ │   ├── is-number@2.1.0 </tspan>
<tspan x="10" y="4026">  │ │ │   ├─┬ isobject@2.1.0 </tspan>
<tspan x="10" y="4042">  │ │ │   │ └── isarray@1.0.0 </tspan>
<tspan x="10" y="4058">  │ │ │   ├── randomatic@1.1.6 </tspan>
<tspan x="10" y="4074">  │ │ │   └── repeat-string@1.6.1 </tspan>
<tspan x="10" y="4090">  │ │ ├── preserve@0.2.0 </tspan>
<tspan x="10" y="4106">  │ │ └── repeat-element@1.1.2 </tspan>
<tspan x="10" y="4122">  │ ├─┬ expand-brackets@0.1.5 </tspan>
<tspan x="10" y="4138">  │ │ └── is-posix-bracket@0.1.1 </tspan>
<tspan x="10" y="4154">  │ ├── extglob@0.3.2 </tspan>
<tspan x="10" y="4170">  │ ├── filename-regex@2.0.0 </tspan>
<tspan x="10" y="4186">  │ ├── is-extglob@1.0.0 </tspan>
<tspan x="10" y="4202">  │ ├── is-glob@2.0.1 </tspan>
<tspan x="10" y="4218">  │ ├─┬ kind-of@3.1.0 </tspan>
<tspan x="10" y="4234">  │ │ └── is-buffer@1.1.5 </tspan>
<tspan x="10" y="4250">  │ ├─┬ normalize-path@2.1.1 </tspan>
<tspan x="10" y="4266">  │ │ └── remove-trailing-separator@1.0.1 </tspan>
<tspan x="10" y="4282">  │ ├─┬ object.omit@2.0.1 </tspan>
<tspan x="10" y="4298">  │ │ ├─┬ for-own@0.1.5 </tspan>
<tspan x="10" y="4314">  │ │ │ └── for-in@1.0.2 </tspan>
<tspan x="10" y="4330">  │ │ └── is-extendable@0.1.1 </tspan>
<tspan x="10" y="4346">  │ ├─┬ parse-glob@3.0.4 </tspan>
<tspan x="10" y="4362">  │ │ ├─┬ glob-base@0.3.0 </tspan>
<tspan x="10" y="4378">  │ │ │ └── glob-parent@2.0.0 </tspan>
<tspan x="10" y="4394">  │ │ └── is-dotfile@1.0.2 </tspan>
<tspan x="10" y="4410">  │ └─┬ regex-cache@0.4.3 </tspan>
<tspan x="10" y="4426">  │   ├── is-equal-shallow@0.1.3 </tspan>
<tspan x="10" y="4442">  │   └── is-primitive@2.0.0 </tspan>
<tspan x="10" y="4458">  ├─┬ node-notifier@5.1.2 </tspan>
<tspan x="10" y="4474">  │ ├── growly@1.3.0 </tspan>
<tspan x="10" y="4490">  │ └── shellwords@0.1.0 </tspan>
<tspan x="10" y="4506">  ├── slash@1.0.0 </tspan>
<tspan x="10" y="4522">  ├── string-length@1.0.1 </tspan>
<tspan x="10" y="4538">  ├── throat@3.0.0 </tspan>
<tspan x="10" y="4554">  ├─┬ which@1.2.14 </tspan>
<tspan x="10" y="4570">  │ └── isexe@2.0.0 </tspan>
<tspan x="10" y="4586">  ├─┬ worker-farm@1.3.1 </tspan>
<tspan x="10" y="4602">  │ ├─┬ errno@0.1.4 </tspan>
<tspan x="10" y="4618">  │ │ └── prr@0.0.0 </tspan>
<tspan x="10" y="4634">  │ └── xtend@4.0.1 </tspan>
<tspan x="10" y="4650">  └─┬ yargs@6.6.0 </tspan>
<tspan x="10" y="4666">    ├── camelcase@3.0.0 </tspan>
<tspan x="10" y="4682">    ├─┬ cliui@3.2.0 </tspan>
<tspan x="10" y="4698">    │ └── wrap-ansi@2.1.0 </tspan>
<tspan x="10" y="4714">    ├── decamelize@1.2.0 </tspan>
<tspan x="10" y="4730">    ├── get-caller-file@1.0.2 </tspan>
<tspan x="10" y="4746">    ├─┬ os-locale@1.4.0 </tspan>
<tspan x="10" y="4762">    │ └─┬ lcid@1.0.0 </tspan>
<tspan x="10" y="4778">    │   └── invert-kv@1.0.0 </tspan>
<tspan x="10" y="4794">    ├─┬ read-pkg-up@1.0.1 </tspan>
<tspan x="10" y="4810">    │ ├─┬ find-up@1.1.2 </tspan>
<tspan x="10" y="4826">    │ │ ├── path-exists@2.1.0 </tspan>
<tspan x="10" y="4842">    │ │ └─┬ pinkie-promise@2.0.1 </tspan>
<tspan x="10" y="4858">    │ │   └── pinkie@2.0.4 </tspan>
<tspan x="10" y="4874">    │ └─┬ read-pkg@1.1.0 </tspan>
<tspan x="10" y="4890">    │   ├─┬ load-json-file@1.1.0 </tspan>
<tspan x="10" y="4906">    │   │ ├─┬ parse-json@2.2.0 </tspan>
<tspan x="10" y="4922">    │   │ │ └─┬ error-ex@1.3.1 </tspan>
<tspan x="10" y="4938">    │   │ │   └── is-arrayish@0.2.1 </tspan>
<tspan x="10" y="4954">    │   │ └── pify@2.3.0 </tspan>
<tspan x="10" y="4970">    │   ├─┬ normalize-package-data@2.3.6 </tspan>
<tspan x="10" y="4986">    │   │ ├── hosted-git-info@2.4.1 </tspan>
<tspan x="10" y="5002">    │   │ ├─┬ is-builtin-module@1.0.0 </tspan>
<tspan x="10" y="5018">    │   │ │ └── builtin-modules@1.1.1 </tspan>
<tspan x="10" y="5034">    │   │ └─┬ validate-npm-package-license@3.0.1 </tspan>
<tspan x="10" y="5050">    │   │   ├─┬ spdx-correct@1.0.2 </tspan>
<tspan x="10" y="5066">    │   │   │ └── spdx-license-ids@1.2.2 </tspan>
<tspan x="10" y="5082">    │   │   └── spdx-expression-parse@1.0.4 </tspan>
<tspan x="10" y="5098">    │   └── path-type@1.1.0 </tspan>
<tspan x="10" y="5114">    ├── require-directory@2.1.1 </tspan>
<tspan x="10" y="5130">    ├── require-main-filename@1.0.1 </tspan>
<tspan x="10" y="5146">    ├── set-blocking@2.0.0 </tspan>
<tspan x="10" y="5162">    ├─┬ string-width@1.0.2 </tspan>
<tspan x="10" y="5178">    │ ├── code-point-at@1.1.0 </tspan>
<tspan x="10" y="5194">    │ └─┬ is-fullwidth-code-point@1.0.0 </tspan>
<tspan x="10" y="5210">    │   └── number-is-nan@1.0.1 </tspan>
<tspan x="10" y="5226">    ├── which-module@1.0.0 </tspan>
<tspan x="10" y="5242">    ├── y18n@3.2.1 </tspan>
<tspan x="10" y="5258">    └─┬ yargs-parser@4.2.1 </tspan>
<tspan x="10" y="5274">      └── camelcase@3.0.0</tspan>
</text>
</svg>
